<?xml version="1.0" encoding="utf-8"?>
<!-- Generator: Adobe Illustrator 21.0.0, SVG Export Plug-In . SVG Version: 6.00 Build 0)  -->
<svg version="1.1" id="Layer_1" xmlns="http://www.w3.org/2000/svg" xmlns:xlink="http://www.w3.org/1999/xlink" x="0px" y="0px"
	 viewBox="0 0 435.7 279.4" style="enable-background:new 0 0 435.7 279.4;" xml:space="preserve">
<style type="text/css">
	.st0{fill:#29B095;}
	.st1{fill:#FFFFFF;}
	.st2{fill:#535EAA;}
	.st3{fill:#E96A51;}
</style>
<g>
	<g>
		<circle class="st0" cx="218.2" cy="120" r="88.3"/>
	</g>
	<g>
		<path class="st1" d="M219,159.9c-0.8,0-1.6-0.1-2.4-0.2c-5.5-0.7-10.5-3.5-14.3-7.7c-3.6,1.7-7.4,2.7-10.7,2.8
			c-4.8,0.3-9.8-2-13.3-6c-3.5-4-5-9.2-4.1-14l5.4,1c-0.6,3.1,0.5,6.6,2.9,9.3c2.4,2.7,5.7,4.3,8.8,4.1c2.3-0.1,5-0.8,7.6-1.9
			c-2-3.3-3.3-7.2-3.7-11.2c-0.1-1-0.3-4.3,1.7-6.6c1-1.1,2.2-1.7,3.6-1.8c0.1,0,0.3-0.1,0.6-0.1c2.3-0.5,9.4-2,11.8,8.6
			c0.7,3.2-0.1,6.4-2.3,9.4c-0.9,1.2-2.1,2.4-3.4,3.4c2.9,2.8,6.4,4.7,10.2,5.1c4.3,0.6,9.1-1,12.7-4.2c0.5-0.5,1-1,1.5-1.5
			c-1.8-1.3-3.3-3.4-4.7-6.1c-2.4-4.9-2.1-9.2,0.7-11.6c2.7-2.3,7.1-2,9.9,0.7c1.9,1.9,3,4.7,3,8.1c0,1-0.1,2-0.2,3
			c0.1-0.1,0.1-0.1,0.2-0.2c7.9-8.3,11.8-20.4,10.7-31.8c-3.7-0.4-7.2-1.7-10-3.9c-1.2-0.9-2.8-2.4-3.3-4.6
			c-0.6-2.4,0.2-4.8,2.3-6.5c2.5-2.1,5.9-2.6,8.7-1.3c3.4,1.6,5.8,5.1,7,10.5c0,0.1,0,0.1,0,0.2c0.6-0.1,1.3-0.2,1.9-0.4
			c4.8-1.2,8.7-4.4,10.5-8.4l5.1,2.2c-2.4,5.6-7.7,9.9-14.2,11.5c-0.8,0.2-1.6,0.4-2.4,0.5c1.2,12.9-3.2,26.2-12.2,35.7
			c-1.7,1.8-4.1,3.9-7.3,4.1c0,0-0.1,0-0.1,0c-0.9,1.4-2.1,2.6-3.4,3.8C229.5,157.9,224.2,159.9,219,159.9z M201,133.4
			c-0.2,0.3-0.5,1.3-0.3,2.4c0.3,3.2,1.4,6.3,3.1,9c0.9-0.7,1.8-1.5,2.4-2.4c1.2-1.6,1.7-3.2,1.3-4.8c-1.2-5.2-3.1-4.8-5.3-4.4
			C201.8,133.3,201.4,133.4,201,133.4z M231.8,134.8c-0.3,0-0.6,0.1-0.7,0.2c-0.8,0.7-0.5,2.7,0.6,5c0.4,0.7,1.3,2.5,2.5,3.7
			c0.4-1.3,0.7-2.6,0.6-4c0-1.1-0.2-3.1-1.4-4.3C233,135.1,232.4,134.8,231.8,134.8z M245.5,99.3c-0.7,0-1.5,0.3-2,0.7
			c-0.4,0.3-0.5,0.6-0.5,0.9c0.1,0.4,0.6,1,1.4,1.6c1.6,1.2,3.5,2.1,5.6,2.5c-0.8-2.9-2.1-4.8-3.7-5.5
			C246.1,99.3,245.8,99.3,245.5,99.3z"/>
	</g>
	<g>
		<g>
			<path class="st2" d="M337.3,33.1c0,0,23.6,35.6,20.3,52.6l-2.7,1.2l-0.7-1l-69,28.6c0,0-1.1,0.6-0.9,1.8
				c-0.8,0.4-2.6,1.3-2.6,1.3S255,76.9,260.6,64.6c0,0,0.9-0.4,1.5-0.6c1,0.8,2.1,0.5,2.1,0.5L337.3,33.1z"/>
			<path class="st1" d="M281.6,118l-0.1-0.2c-0.1-0.1-6.8-10.3-12.7-21.9c-8-15.6-10.8-26.2-8.4-31.3l0-0.1l0.1,0
				c0,0,0.9-0.4,1.5-0.6l0.1,0l0.1,0.1c0.9,0.7,1.8,0.5,1.8,0.5l73.3-31.6l0.1,0.2c0.1,0.1,6,9,11.4,20c7.3,14.7,10.3,25.8,8.9,32.9
				l0,0.2l-3.1,1.4l-0.7-1l-68.8,28.5c0,0-0.8,0.5-0.7,1.5l0,0.2l-0.2,0.1c-0.8,0.4-2.5,1.2-2.6,1.3L281.6,118z M260.8,64.9
				c-5.1,11.6,18.9,49.1,21,52.3c0.5-0.2,1.5-0.7,2.1-1c-0.1-1.3,1-1.9,1-1.9l69.2-28.7l0.7,1l2.3-1c3-16.1-18.2-49.1-20.1-52
				l-72.9,31.4c-0.1,0-1.2,0.3-2.2-0.5C261.6,64.6,261.1,64.8,260.8,64.9z"/>
		</g>
		<g>
			<path class="st2" d="M336.8,34.5c-0.4,0.4-0.5,0.9-0.7,1.5c-0.2,0.6-0.2,1.3-0.2,1.9c0,1,0,1.9,0.2,2.9c0.2,1.4,0.5,2.8,0.8,4.1
				c0.5,1.9,1.1,3.7,1.7,5.5c0.9,2.4,1.9,4.8,2.9,7.1c0.4,0.8,0.8,1.7,1.2,2.5c10.3,21.6,11.7,26.3,14,25c0,0,3.2-6.1-7.2-28.5
				c-0.2-0.4-0.4-0.7-0.5-1.1c-0.5-1-0.9-1.9-1.4-2.9c-0.7-1.3-1.3-2.7-2-4c-0.8-1.5-1.5-3-2.3-4.4c-0.8-1.4-1.5-2.8-2.4-4.2
				c-0.7-1.2-1.4-2.3-2.1-3.4c-0.5-0.7-0.9-1.5-1.5-2C337.1,34.5,337,34.4,336.8,34.5z"/>
			<path class="st1" d="M356.1,85.5c-0.1,0-0.3,0-0.4-0.1c-1.5-0.5-3-3.7-7.5-13.2c-1.5-3.2-3.4-7.2-5.7-12.1
				c-0.4-0.8-0.8-1.7-1.2-2.5c-1.2-2.6-2.1-4.9-2.9-7.1c-0.7-2-1.3-3.8-1.8-5.6c-0.4-1.5-0.7-2.9-0.8-4.2c-0.1-1.1-0.2-2.1-0.2-3
				c0-0.7,0.1-1.4,0.3-1.9c0.1-0.5,0.3-1.1,0.7-1.6l0.1,0c0.2-0.1,0.5-0.1,0.8,0.1c0.5,0.4,0.9,1,1.3,1.5c0.1,0.2,0.2,0.4,0.3,0.5
				c0.8,1.2,1.5,2.4,2.1,3.4c0.7,1.2,1.5,2.6,2.4,4.3c0.8,1.5,1.6,3,2.3,4.4c0.7,1.3,1.3,2.7,2,4c0.5,1,0.9,1.9,1.4,2.9
				c0.2,0.4,0.4,0.7,0.5,1.1c10.4,22.3,7.3,28.5,7.2,28.8l0,0.1l-0.1,0C356.6,85.5,356.3,85.5,356.1,85.5z M337,34.8
				c-0.3,0.4-0.4,0.9-0.5,1.3c-0.1,0.5-0.2,1.1-0.2,1.8c0,0.9,0,1.8,0.2,2.9c0.2,1.3,0.4,2.6,0.8,4.1c0.4,1.7,1,3.5,1.7,5.5
				c0.8,2.2,1.8,4.5,2.9,7.1c0.4,0.8,0.8,1.7,1.2,2.5c2.3,4.8,4.2,8.8,5.7,12.1c4.1,8.8,5.8,12.5,7.1,12.9c0.2,0.1,0.4,0,0.7-0.1
				c0.3-0.8,2.4-7.5-7.2-28.1c-0.2-0.4-0.4-0.7-0.5-1.1c-0.5-1-0.9-1.9-1.4-2.9c-0.7-1.3-1.3-2.7-2-4c-0.8-1.5-1.5-3-2.3-4.4
				c-0.9-1.6-1.6-3-2.4-4.2c-0.6-1-1.3-2.2-2.1-3.4c-0.1-0.2-0.2-0.4-0.4-0.5C337.9,35.7,337.5,35.1,337,34.8
				C337,34.8,337,34.8,337,34.8z"/>
		</g>
		<g>
			<path class="st2" d="M314.1,43.6c0,0-2.9,6.3,7.3,29.3s13.2,20.8,13.2,20.8"/>
			<path class="st1" d="M334.3,94.1c-0.1,0-0.2,0-0.3,0c-1.5-0.4-5.2-3.7-12.9-21c-10.1-22.9-7.4-29.3-7.3-29.6l0.5,0.2
				c0,0.1-2.6,6.5,7.3,29.1c7.6,17.3,11.2,20.2,12.3,20.6c0.3,0.1,0.4,0.1,0.4,0.1l0.3,0.5C334.7,94,334.6,94.1,334.3,94.1z"/>
		</g>
		<g>
			<path class="st2" d="M308.7,46.2c0,0-2.9,6.3,7.3,29.3s13.2,20.8,13.2,20.8"/>
			<path class="st1" d="M328.9,96.8c-0.1,0-0.2,0-0.3,0c-1.5-0.4-5.2-3.7-12.9-21c-10.1-22.9-7.4-29.3-7.3-29.6l0.5,0.2
				c0,0.1-2.6,6.5,7.3,29.1c7.6,17.3,11.2,20.2,12.3,20.6c0.3,0.1,0.4,0.1,0.4,0.1l0.3,0.5C329.3,96.7,329.2,96.8,328.9,96.8z"/>
		</g>
		<g>
			<path class="st2" d="M303.3,47.8c0,0-2.9,6.3,7.3,29.3S323.8,98,323.8,98"/>
			<path class="st1" d="M323.5,98.4c-0.1,0-0.2,0-0.3,0c-1.5-0.4-5.2-3.7-12.9-21c-10.1-22.9-7.4-29.3-7.3-29.6l0.5,0.2l-0.3-0.1
				l0.3,0.1c0,0.1-2.6,6.5,7.3,29.1c7.6,17.3,11.2,20.2,12.3,20.6c0.3,0.1,0.4,0.1,0.4,0.1l0.3,0.5
				C323.9,98.3,323.8,98.4,323.5,98.4z"/>
		</g>
		<g>
			<path class="st2" d="M262.2,65c0,0-2.3,7.7,6.8,27.2s14,23.6,14,23.6"/>
			<path class="st1" d="M282.8,116c-0.2-0.2-5.1-4.4-14.1-23.7c-9-19.4-6.9-27.1-6.8-27.4l0.6,0.2c0,0.1-2.2,7.8,6.7,27
				c8.9,19.2,13.9,23.5,14,23.5L282.8,116z"/>
		</g>
	</g>
	<g>
		<g>
			<path class="st3" d="M109.7,76.5c0,0-23.6,35.6-20.3,52.6l2.7,1.2l0.7-1l69,28.6c0,0,1.1,0.6,0.9,1.8c0.8,0.4,2.6,1.3,2.6,1.3
				s26.8-40.7,21.1-52.9c0,0-0.9-0.4-1.5-0.6c-1,0.8-2.1,0.5-2.1,0.5L109.7,76.5z"/>
			<path class="st1" d="M165.4,161.4l-0.2-0.1c-0.1,0-1.8-0.8-2.6-1.3l-0.2-0.1l0-0.2c0.2-1-0.7-1.5-0.7-1.5l-68.7-28.5l-0.7,1
				l-3.1-1.4l0-0.2c-1.4-7.1,1.6-18.2,8.9-32.9c5.4-10.9,11.3-19.9,11.4-20l0.1-0.2l73.3,31.6c0,0,0.1,0,0.3,0
				c0.3,0,0.9-0.1,1.5-0.5l0.1-0.1l0.1,0c0.6,0.2,1.5,0.6,1.5,0.6l0.1,0l0,0.1c2.4,5.2-0.5,15.7-8.4,31.3
				c-5.9,11.6-12.6,21.8-12.7,21.9L165.4,161.4z M163,159.6c0.6,0.3,1.7,0.8,2.1,1c2.1-3.2,26.1-40.7,21-52.3
				c-0.2-0.1-0.8-0.3-1.2-0.5c-1.1,0.7-2.1,0.5-2.2,0.5l-72.9-31.4c-1.9,3-23.1,35.9-20.1,52l2.3,1l0.7-1l0.2,0.1l69,28.6
				C162,157.7,163.1,158.3,163,159.6z"/>
		</g>
		<g>
			<path class="st3" d="M110.2,77.9c0.4,0.4,0.5,0.9,0.7,1.5c0.2,0.6,0.2,1.3,0.2,1.9c0,1,0,1.9-0.2,2.9c-0.2,1.4-0.5,2.8-0.8,4.1
				c-0.5,1.9-1.1,3.7-1.7,5.5c-0.9,2.4-1.9,4.8-2.9,7.1c-0.4,0.8-0.8,1.7-1.2,2.5c-10.3,21.6-11.7,26.3-14,25c0,0-3.2-6.1,7.2-28.5
				c0.2-0.4,0.4-0.7,0.5-1.1c0.5-1,0.9-1.9,1.4-2.9c0.7-1.3,1.3-2.7,2-4c0.8-1.5,1.5-3,2.3-4.4c0.8-1.4,1.5-2.8,2.4-4.2
				c0.7-1.2,1.4-2.3,2.1-3.4c0.5-0.7,0.9-1.5,1.5-2C109.9,77.9,110,77.8,110.2,77.9z"/>
			<path class="st1" d="M90.9,129c-0.3,0-0.5-0.1-0.8-0.2l-0.1,0l0-0.1c-0.1-0.3-3.2-6.4,7.2-28.8c0.2-0.4,0.4-0.7,0.5-1.1
				c0.5-1,0.9-1.9,1.4-2.9c0.7-1.3,1.3-2.7,2-4c0.8-1.5,1.5-3,2.3-4.4c0.9-1.6,1.6-3,2.4-4.3c0.6-1.1,1.3-2.3,2.1-3.4
				c0.1-0.2,0.2-0.3,0.3-0.5c0.4-0.6,0.7-1.1,1.3-1.5c0.3-0.2,0.6-0.2,0.8-0.1l0.1,0c0.4,0.5,0.6,1.1,0.7,1.6
				c0.1,0.6,0.2,1.2,0.3,1.9c0,0.9,0,1.9-0.2,3c-0.2,1.3-0.4,2.6-0.8,4.2c-0.4,1.7-1,3.5-1.8,5.6c-0.8,2.2-1.8,4.6-2.9,7.1
				c-0.4,0.8-0.8,1.7-1.2,2.5c-2.3,4.8-4.2,8.8-5.7,12.1c-4.5,9.5-6,12.7-7.5,13.2C91.2,129,91.1,129,90.9,129z M90.5,128.3
				c0.2,0.1,0.5,0.1,0.7,0.1c1.3-0.4,3-4.1,7.1-12.9c1.5-3.2,3.4-7.2,5.7-12.1c0.4-0.8,0.8-1.7,1.2-2.5c1.2-2.6,2.1-4.9,2.9-7.1
				c0.7-2,1.3-3.8,1.7-5.5c0.4-1.5,0.7-2.8,0.8-4.1c0.1-1.1,0.2-2,0.2-2.9c0-0.7-0.1-1.3-0.2-1.8c-0.1-0.4-0.2-0.9-0.5-1.3
				c0,0,0,0-0.1,0.1c-0.4,0.3-0.8,0.9-1.1,1.4c-0.1,0.2-0.2,0.4-0.4,0.5c-0.8,1.1-1.5,2.3-2.1,3.4c-0.7,1.2-1.5,2.6-2.4,4.2
				c-0.8,1.5-1.6,2.9-2.3,4.4c-0.7,1.3-1.3,2.6-2,4c-0.5,1-0.9,1.9-1.4,2.9c-0.2,0.4-0.4,0.7-0.5,1.1
				C88.1,120.9,90.2,127.5,90.5,128.3z"/>
		</g>
		<g>
			<path class="st3" d="M132.9,87.1c0,0,2.9,6.3-7.3,29.3s-13.2,20.8-13.2,20.8"/>
			<path class="st1" d="M112.7,137.6c-0.3,0-0.4-0.1-0.4-0.1l0.4-0.5c0,0,0,0,0.1,0c0.1,0,0.2,0,0.3-0.1c1.2-0.4,4.7-3.3,12.3-20.6
				c9.9-22.6,7.3-29,7.3-29.1l0.5-0.2c0.1,0.3,2.8,6.7-7.3,29.6c-7.6,17.3-11.3,20.6-12.9,21C112.9,137.6,112.8,137.6,112.7,137.6z"
				/>
		</g>
		<g>
			<path class="st3" d="M138.3,89.7c0,0,2.9,6.3-7.3,29.3c-10.2,23.1-13.2,20.8-13.2,20.8"/>
			<path class="st1" d="M118.1,140.2c-0.3,0-0.4-0.1-0.4-0.1l0.4-0.5c0,0,0,0,0.1,0c0.1,0,0.2,0,0.3-0.1c1.2-0.4,4.7-3.3,12.3-20.6
				c10-22.7,7.3-29,7.3-29.1l0.5-0.2c0.1,0.3,2.8,6.7-7.3,29.6c-7.6,17.3-11.3,20.6-12.9,21C118.3,140.2,118.2,140.2,118.1,140.2z"
				/>
		</g>
		<g>
			<path class="st3" d="M143.7,91.3c0,0,2.9,6.3-7.3,29.3c-10.2,23.1-13.2,20.8-13.2,20.8"/>
			<path class="st1" d="M123.5,141.8c-0.3,0-0.4-0.1-0.4-0.1l0.4-0.5c0,0,0,0,0.1,0c0.1,0,0.2,0,0.3-0.1c1.2-0.4,4.7-3.3,12.3-20.6
				c9.9-22.6,7.3-29,7.3-29.1l0.5-0.2c0.1,0.3,2.8,6.7-7.3,29.6c-7.6,17.3-11.3,20.6-12.9,21C123.7,141.8,123.6,141.8,123.5,141.8z"
				/>
		</g>
		<g>
			<path class="st3" d="M184.8,108.4c0,0,2.3,7.7-6.8,27.2c-9.1,19.5-14,23.6-14,23.6"/>
			<path class="st1" d="M164.2,159.4l-0.4-0.5c0,0,5-4.4,14-23.5c8.9-19.2,6.8-26.9,6.7-26.9l0.6-0.2c0.1,0.3,2.2,8-6.8,27.4
				C169.3,155,164.4,159.3,164.2,159.4z"/>
		</g>
	</g>
</g>
</svg>
