<?xml version="1.0" encoding="utf-8"?>
<!-- Generator: Adobe Illustrator 18.1.1, SVG Export Plug-In . SVG Version: 6.00 Build 0)  -->
<svg version="1.1" xmlns="http://www.w3.org/2000/svg" xmlns:xlink="http://www.w3.org/1999/xlink" x="0px" y="0px"
	 viewBox="0 0 175.5 177" enable-background="new 0 0 175.5 177" xml:space="preserve">
<g id="Layer_1">
</g>
<g id="Layer_2">
	<g>
		<circle fill="#27B095" cx="85.7" cy="87.5" r="53.3"/>
		<path fill="none" stroke="#FFFFFF" stroke-width="3.3271" stroke-miterlimit="10" d="M60.8,96.8c-1,5,3.7,10.3,8.8,10.1
			c5.1-0.3,12.4-4.2,11.3-9.2c-1.2-5.5-4.7-3.9-5.7-3.8c-1.4,0.1-1.8,1.9-1.7,3.3c0.6,6.1,5.4,11.8,11.5,12.6
			c6.1,0.8,12.6-4.3,12.5-10.4c0-1.4-0.4-2.8-1.3-3.8c-1-1-2.7-1.2-3.7-0.4c-1.4,1.2-0.8,3.4,0,5c0.9,1.9,2.5,4,4.6,3.8
			c1.3-0.1,2.4-1,3.3-2c5.8-6.1,8.3-15.2,6.4-23.4c-0.5-2.1-1.4-4.3-3.3-5.2c-1.9-0.9-4.8,0.7-4.3,2.8c0.2,0.8,0.8,1.4,1.4,1.9
			c5.3,4.1,14.2,1.8,16.8-4.3"/>
		<g>
			<path fill="#4848E0" stroke="#FFFFFF" stroke-width="0.3621" stroke-miterlimit="10" d="M157.5,35c0,0,14.2,21.5,12.2,31.7
				l-1.6,0.7l-0.4-0.6l-41.6,17.2c0,0-0.6,0.3-0.5,1.1c-0.5,0.3-1.6,0.8-1.6,0.8S107.9,61.4,111.3,54c0,0,0.5-0.2,0.9-0.3
				c0.6,0.5,1.2,0.3,1.2,0.3L157.5,35z"/>
			<path fill="#4848E0" stroke="#FFFFFF" stroke-width="0.3621" stroke-miterlimit="10" d="M157.3,35.8c-0.2,0.2-0.3,0.6-0.4,0.9
				c-0.1,0.4-0.1,0.8-0.1,1.1c0,0.6,0,1.2,0.1,1.8c0.1,0.8,0.3,1.7,0.5,2.5c0.3,1.1,0.7,2.2,1.1,3.3c0.5,1.5,1.1,2.9,1.8,4.3
				c0.2,0.5,0.5,1,0.7,1.5c6.2,13,7,15.9,8.4,15.1c0,0,2-3.7-4.3-17.2c-0.1-0.2-0.2-0.4-0.3-0.7c-0.3-0.6-0.6-1.2-0.9-1.7
				c-0.4-0.8-0.8-1.6-1.2-2.4c-0.5-0.9-0.9-1.8-1.4-2.7c-0.5-0.9-0.9-1.7-1.4-2.6c-0.4-0.7-0.8-1.4-1.3-2c-0.3-0.4-0.5-0.9-0.9-1.2
				C157.5,35.8,157.4,35.8,157.3,35.8z"/>
			<path fill="#4848E0" stroke="#FFFFFF" stroke-width="0.3621" stroke-miterlimit="10" d="M143.6,41.4c0,0-1.7,3.8,4.4,17.7
				c6.1,13.9,8,12.6,8,12.6"/>
			<path fill="#4848E0" stroke="#FFFFFF" stroke-width="0.3621" stroke-miterlimit="10" d="M140.3,42.9c0,0-1.7,3.8,4.4,17.7
				s8,12.6,8,12.6"/>
			<path fill="#4848E0" stroke="#FFFFFF" stroke-width="0.3621" stroke-miterlimit="10" d="M137,43.9c0,0-1.7,3.8,4.4,17.7
				c6.1,13.9,8,12.6,8,12.6"/>
			<path fill="#4848E0" stroke="#FFFFFF" stroke-width="0.3621" stroke-miterlimit="10" d="M112.2,54.2c0,0-1.4,4.6,4.1,16.4
				s8.5,14.3,8.5,14.3"/>
		</g>
		<g>
			<path fill="#E86951" stroke="#FFFFFF" stroke-width="0.3621" stroke-miterlimit="10" d="M20.3,61.2c0,0-14.2,21.5-12.2,31.7
				l1.6,0.7l0.4-0.6l41.6,17.2c0,0,0.6,0.3,0.5,1.1c0.5,0.3,1.6,0.8,1.6,0.8s16.1-24.6,12.7-31.9c0,0-0.5-0.2-0.9-0.3
				c-0.6,0.5-1.2,0.3-1.2,0.3L20.3,61.2z"/>
			<path fill="#E86951" stroke="#FFFFFF" stroke-width="0.3621" stroke-miterlimit="10" d="M20.6,62.1c0.2,0.2,0.3,0.6,0.4,0.9
				c0.1,0.4,0.1,0.8,0.1,1.1c0,0.6,0,1.2-0.1,1.8c-0.1,0.8-0.3,1.7-0.5,2.5c-0.3,1.1-0.7,2.2-1.1,3.3c-0.5,1.5-1.1,2.9-1.8,4.3
				c-0.2,0.5-0.5,1-0.7,1.5c-6.2,13-7,15.9-8.4,15.1c0,0-2-3.7,4.3-17.2c0.1-0.2,0.2-0.4,0.3-0.7c0.3-0.6,0.6-1.2,0.9-1.7
				c0.4-0.8,0.8-1.6,1.2-2.4c0.5-0.9,0.9-1.8,1.4-2.7c0.5-0.9,0.9-1.7,1.4-2.6c0.4-0.7,0.8-1.4,1.3-2c0.3-0.4,0.5-0.9,0.9-1.2
				C20.4,62.1,20.5,62,20.6,62.1z"/>
			<path fill="#E86951" stroke="#FFFFFF" stroke-width="0.3621" stroke-miterlimit="10" d="M34.3,67.6c0,0,1.7,3.8-4.4,17.7
				s-8,12.6-8,12.6"/>
			<path fill="#E86951" stroke="#FFFFFF" stroke-width="0.3621" stroke-miterlimit="10" d="M37.5,69.1c0,0,1.7,3.8-4.4,17.7
				s-8,12.6-8,12.6"/>
			<path fill="#E86951" stroke="#FFFFFF" stroke-width="0.3621" stroke-miterlimit="10" d="M40.8,70.1c0,0,1.7,3.8-4.4,17.7
				s-8,12.6-8,12.6"/>
			<path fill="#E86951" stroke="#FFFFFF" stroke-width="0.3621" stroke-miterlimit="10" d="M65.6,80.4c0,0,1.4,4.6-4.1,16.4
				S53,111.1,53,111.1"/>
		</g>
	</g>
	<g>
		<g>
			<path fill="#3E3D4D" d="M78.6,150.5l-0.5,2.7l2.2,0.4l-0.2,1l-2.2-0.4l-1.3,7.1c-0.1,0.6-0.1,1,0.1,1.4c0.2,0.3,0.5,0.5,1,0.6
				c0.2,0,0.5,0.1,1,0.1l-0.1,1c-0.3,0.1-0.8,0-1.3-0.1c-0.8-0.1-1.3-0.5-1.6-1c-0.3-0.5-0.3-1.3-0.2-2.2l1.3-7.1l-1.9-0.3l0.2-1
				l1.9,0.3l0.5-2.7L78.6,150.5z"/>
			<path fill="#3E3D4D" d="M83.6,155.8c0.4-0.6,0.9-1.1,1.6-1.4c0.6-0.3,1.3-0.5,2-0.4c1.2,0,2,0.4,2.5,1.1c0.5,0.7,0.8,1.7,0.7,3
				l-0.3,7.1l-1.2,0l0.3-7.1c0-1-0.1-1.7-0.5-2.2c-0.4-0.5-1-0.7-1.9-0.8c-0.7,0-1.4,0.2-2,0.6c-0.6,0.4-1,1-1.3,1.8l-0.3,7.4
				l-1.2,0l0.6-15.3l1.2,0L83.6,155.8z"/>
			<path fill="#3E3D4D" d="M98.8,164.4c-0.9,0.1-1.8,0-2.5-0.3c-0.8-0.4-1.4-0.9-2-1.6c-0.5-0.7-0.8-1.6-1-2.6l-0.1-0.4
				c-0.1-1-0.1-2,0.2-2.8c0.3-0.9,0.8-1.6,1.4-2.2s1.4-0.9,2.2-1c1.3-0.2,2.4,0.1,3.3,0.9c0.9,0.8,1.4,1.9,1.6,3.5l0.1,0.7l-7.6,1
				l0,0.2c0.2,1.2,0.6,2.2,1.4,2.9s1.7,1,2.8,0.9c0.6-0.1,1.2-0.3,1.6-0.6c0.5-0.3,0.8-0.7,1.2-1.3l0.8,0.5
				C101.7,163.4,100.5,164.2,98.8,164.4z M97.3,154.4c-0.9,0.1-1.6,0.5-2.1,1.3c-0.5,0.7-0.8,1.7-0.8,2.8l6.4-0.8l0-0.1
				c-0.2-1-0.6-1.8-1.2-2.4C99,154.5,98.2,154.3,97.3,154.4z"/>
			<path fill="#3E3D4D" d="M118.2,158.8c-0.2-0.3-0.5-0.7-0.8-1.3c-0.2,0.7-0.5,1.2-1,1.8s-1.1,0.9-1.7,1.2c-1,0.4-1.8,0.4-2.7,0.1
				c-0.8-0.3-1.4-0.9-1.7-1.7c-0.4-1-0.3-1.9,0.3-2.8c0.6-0.9,1.6-1.6,3-2.2l2-0.8l-0.5-1.1c-0.3-0.7-0.7-1.2-1.3-1.4
				c-0.6-0.2-1.3-0.2-2.2,0.1c-0.8,0.3-1.3,0.8-1.7,1.3c-0.3,0.6-0.4,1.2-0.2,1.7l-1.1,0.4c-0.3-0.8-0.2-1.6,0.3-2.5s1.3-1.5,2.4-2
				c1.1-0.4,2.1-0.5,3-0.2s1.5,0.9,1.9,1.9l1.9,4.7c0.4,1,0.8,1.7,1.2,2.1l0,0.1L118.2,158.8z M114.4,159.4c0.7-0.3,1.3-0.7,1.8-1.3
				s0.7-1.2,0.7-1.9l-0.9-2.2l-2,0.8c-1.1,0.4-1.9,1-2.3,1.6s-0.6,1.3-0.3,2c0.2,0.6,0.6,0.9,1.2,1.1S113.8,159.6,114.4,159.4z"/>
			<path fill="#3E3D4D" d="M116.2,144.3c-0.1-0.2-0.1-0.4-0.1-0.6c0.1-0.2,0.2-0.4,0.4-0.5c0.2-0.1,0.4-0.1,0.6-0.1
				c0.2,0.1,0.4,0.2,0.5,0.4s0.1,0.4,0.1,0.6c-0.1,0.2-0.2,0.4-0.4,0.5c-0.2,0.1-0.4,0.1-0.6,0.1S116.3,144.5,116.2,144.3z
				 M124,155.8l-1,0.6l-5.1-9.4l1-0.6L124,155.8z"/>
			<path fill="#3E3D4D" d="M131.4,147.8c-0.3-0.5-0.8-0.7-1.4-0.7s-1.3,0.2-2.2,0.6c-0.9,0.4-1.6,0.6-2.2,0.7s-1.1,0.1-1.5-0.1
				c-0.4-0.2-0.8-0.5-1.1-0.9c-0.5-0.7-0.6-1.5-0.3-2.3c0.3-0.9,0.8-1.6,1.7-2.3c1-0.7,1.9-1,2.9-0.9c0.9,0.1,1.7,0.5,2.2,1.3
				l-1,0.7c-0.4-0.5-0.9-0.8-1.6-0.8s-1.3,0.2-2,0.6c-0.6,0.5-1,1-1.2,1.5c-0.2,0.6-0.1,1.1,0.2,1.5c0.3,0.4,0.7,0.7,1.2,0.7
				c0.5,0,1.2-0.2,2.2-0.6c1-0.4,1.8-0.6,2.4-0.7c0.6-0.1,1.1,0,1.5,0.2c0.4,0.2,0.8,0.5,1.1,0.9c0.5,0.7,0.6,1.5,0.4,2.4
				c-0.3,0.9-0.9,1.6-1.9,2.3c-1,0.7-2,1.1-3,1c-1,0-1.7-0.4-2.3-1.2l1-0.7c0.4,0.5,1,0.8,1.7,0.8c0.7,0,1.4-0.2,2.1-0.8
				c0.7-0.5,1.1-1,1.3-1.6C131.8,148.8,131.7,148.2,131.4,147.8z"/>
			<path fill="#3E3D4D" d="M137.7,146l-0.9,0.8l-10.2-11.4l0.9-0.8L137.7,146z"/>
			<path fill="#3E3D4D" d="M143.7,140.1c-0.6,0.7-1.3,1.2-2.1,1.4c-0.8,0.3-1.7,0.3-2.6,0.1c-0.9-0.2-1.7-0.7-2.4-1.3l-0.3-0.3
				c-0.8-0.7-1.3-1.4-1.7-2.3c-0.4-0.8-0.5-1.7-0.4-2.5c0.1-0.8,0.5-1.6,1-2.2c0.9-1,1.9-1.5,3.1-1.5c1.2,0,2.3,0.5,3.5,1.5l0.5,0.4
				l-5.1,5.8l0.2,0.2c0.9,0.8,1.9,1.2,3,1.2c1.1,0,2-0.4,2.7-1.2c0.4-0.5,0.7-1,0.9-1.5s0.2-1.1,0-1.7l0.9-0.2
				C145.2,137.5,144.8,138.8,143.7,140.1z M136,133.6c-0.6,0.7-0.8,1.5-0.8,2.3s0.5,1.8,1.2,2.6l4.3-4.8l-0.1-0.1
				c-0.8-0.7-1.6-1-2.5-1C137.3,132.6,136.6,132.9,136,133.6z"/>
		</g>
	</g>
	<g>
		<path fill="#3E3D4D" d="M27.7,43.8c-1.2-1.1-2-2.3-2.2-3.5c-0.2-1.2,0.1-2.3,0.9-3.3c1-1.1,2.1-1.5,3.5-1.3l-4.5-4l0.8-0.9
			l11.4,10.2l-0.7,0.8l-1.1-0.9c0.3,1.3,0,2.5-1,3.6c-0.8,0.9-1.9,1.3-3.1,1.2c-1.2-0.1-2.5-0.7-3.8-1.8L27.7,43.8z M28.7,43
			c1,0.9,2,1.4,3,1.5c1,0.1,1.8-0.2,2.4-0.9c1-1.1,1.2-2.3,0.6-3.6l-3.8-3.4c-1.5-0.5-2.7-0.2-3.6,0.9c-0.7,0.7-0.9,1.6-0.7,2.5
			C26.9,41,27.5,42,28.7,43z"/>
		<path fill="#3E3D4D" d="M30.2,28.9c-0.2-0.2-0.2-0.4-0.2-0.6c0-0.2,0.1-0.4,0.3-0.6c0.2-0.2,0.4-0.2,0.6-0.2
			c0.2,0,0.4,0.1,0.5,0.3c0.2,0.2,0.2,0.4,0.2,0.6c0,0.2-0.1,0.4-0.3,0.6c-0.2,0.2-0.4,0.2-0.6,0.2S30.4,29.1,30.2,28.9z M40.6,38.2
			L39.7,39l-7.2-7.9l0.9-0.8L40.6,38.2z"/>
		<path fill="#3E3D4D" d="M48.2,32.2c-0.3-0.2-0.7-0.6-1.1-1.1c0,0.7-0.2,1.3-0.5,2c-0.3,0.6-0.8,1.1-1.4,1.6
			c-0.8,0.6-1.7,0.9-2.5,0.8c-0.9-0.1-1.5-0.5-2.1-1.2c-0.6-0.8-0.8-1.8-0.4-2.8c0.3-1,1.1-2,2.4-2.9l1.7-1.3l-0.7-1
			c-0.5-0.6-1-1-1.7-1c-0.6-0.1-1.3,0.2-2.1,0.7c-0.7,0.5-1.1,1.1-1.3,1.7c-0.2,0.7-0.1,1.2,0.3,1.7l-1,0.7
			c-0.5-0.7-0.6-1.5-0.4-2.5c0.3-1,0.9-1.8,1.8-2.5c1-0.7,1.9-1,2.8-1c0.9,0.1,1.7,0.5,2.4,1.4l3,4.1c0.6,0.8,1.2,1.4,1.7,1.7
			l0.1,0.1L48.2,32.2z M44.7,33.7c0.6-0.5,1.1-1.1,1.4-1.7c0.3-0.7,0.3-1.4,0.2-2.1L44.8,28l-1.7,1.3c-0.9,0.7-1.6,1.4-1.8,2.2
			c-0.3,0.7-0.2,1.4,0.2,2c0.4,0.5,0.8,0.8,1.4,0.8C43.5,34.3,44.1,34.2,44.7,33.7z"/>
		<path fill="#3E3D4D" d="M52.6,29.5l-1,0.6L43.7,17l1-0.6L52.6,29.5z"/>
		<path fill="#3E3D4D" d="M65.6,23.5c-0.2-0.3-0.5-0.7-0.8-1.3c-0.2,0.7-0.5,1.2-1,1.7c-0.5,0.5-1.1,0.9-1.8,1.1
			c-1,0.4-1.8,0.4-2.7,0.1c-0.8-0.3-1.4-0.9-1.7-1.7c-0.4-1-0.3-1.9,0.3-2.8s1.6-1.6,3.1-2.2l2-0.8l-0.4-1.1
			c-0.3-0.7-0.7-1.2-1.3-1.4c-0.6-0.2-1.3-0.2-2.2,0.1c-0.8,0.3-1.3,0.7-1.7,1.3c-0.4,0.6-0.4,1.2-0.2,1.7l-1.1,0.4
			c-0.3-0.8-0.2-1.6,0.3-2.5c0.5-0.9,1.3-1.5,2.4-1.9c1.1-0.4,2.1-0.5,3-0.2c0.9,0.3,1.5,1,1.9,2l1.8,4.7c0.4,1,0.8,1.7,1.1,2.1
			l0,0.1L65.6,23.5z M61.8,24c0.7-0.3,1.3-0.7,1.8-1.3c0.4-0.6,0.7-1.2,0.7-1.9l-0.8-2.2l-2,0.8c-1.1,0.4-1.9,1-2.4,1.6
			c-0.5,0.6-0.6,1.3-0.3,2c0.2,0.6,0.6,0.9,1.2,1.2C60.5,24.3,61.1,24.3,61.8,24z"/>
		<path fill="#3E3D4D" d="M72.8,20.7c0.8-0.2,1.4-0.6,1.9-1.1c0.4-0.6,0.6-1.2,0.5-2l1.1-0.3c0.1,0.6,0,1.3-0.2,1.9
			c-0.2,0.6-0.6,1.1-1.2,1.6c-0.5,0.4-1.2,0.7-1.9,0.9c-1.4,0.3-2.6,0.1-3.6-0.7c-1-0.8-1.7-2-2.1-3.6l-0.1-0.3
			c-0.2-1-0.3-2-0.1-2.9c0.2-0.9,0.6-1.6,1.1-2.2c0.6-0.6,1.3-1,2.2-1.2c1.1-0.3,2.2-0.1,3.1,0.4s1.5,1.3,1.8,2.4l-1.1,0.3
			c-0.2-0.8-0.7-1.4-1.3-1.8c-0.7-0.4-1.4-0.5-2.2-0.3c-1,0.2-1.8,0.8-2.2,1.7c-0.4,0.9-0.5,2-0.1,3.4l0.1,0.3
			c0.3,1.3,0.8,2.3,1.6,2.9C70.8,20.8,71.7,20.9,72.8,20.7z"/>
		<path fill="#3E3D4D" d="M82.8,10.2c-0.3,0-0.5,0-0.8,0c-0.7,0.1-1.3,0.4-1.8,0.8c-0.5,0.5-0.8,1.1-0.9,1.9l0.8,7.3L79,20.4
			L77.8,9.7l1.2-0.1l0.2,1.7c0.5-1.3,1.4-2.1,2.8-2.2c0.3,0,0.6,0,0.8,0L82.8,10.2z"/>
		<path fill="#3E3D4D" d="M84.6,14.1c0-1,0.2-2,0.6-2.8c0.4-0.8,1-1.5,1.7-1.9c0.7-0.4,1.6-0.7,2.5-0.7c1.4,0,2.6,0.5,3.5,1.6
			c0.9,1,1.3,2.4,1.3,4l0,0.2c0,1-0.2,2-0.6,2.8c-0.4,0.8-1,1.5-1.7,1.9s-1.6,0.7-2.5,0.6c-1.4,0-2.6-0.5-3.4-1.6
			c-0.9-1-1.3-2.4-1.3-4L84.6,14.1z M85.8,14.5c0,1.3,0.3,2.3,0.9,3.2c0.7,0.8,1.5,1.3,2.6,1.3c1.1,0,1.9-0.4,2.6-1.2
			c0.7-0.8,1-1.9,1.1-3.2l0-0.2c0-0.8-0.1-1.6-0.4-2.3c-0.3-0.7-0.7-1.2-1.3-1.6s-1.2-0.6-1.9-0.6c-1.1,0-1.9,0.4-2.6,1.2
			c-0.7,0.8-1,1.9-1.1,3.2L85.8,14.5z"/>
		<path fill="#3E3D4D" d="M102.9,18.2c0.1-0.6-0.1-1.1-0.5-1.5c-0.4-0.4-1.1-0.8-2-1.1c-0.9-0.3-1.6-0.7-2.1-1
			c-0.5-0.3-0.8-0.7-1-1.1C97.1,13,97,12.6,97.1,12c0.1-0.8,0.6-1.5,1.4-1.9c0.8-0.4,1.7-0.6,2.8-0.4c1.2,0.2,2.1,0.6,2.7,1.3
			c0.6,0.7,0.9,1.5,0.7,2.5l-1.2-0.2c0.1-0.6-0.1-1.2-0.6-1.7c-0.5-0.5-1.1-0.8-1.9-0.9c-0.8-0.1-1.4,0-1.9,0.2s-0.8,0.7-0.9,1.2
			c-0.1,0.5,0.1,1,0.4,1.3s1,0.7,2,1.1c1,0.4,1.7,0.8,2.2,1.1c0.5,0.4,0.8,0.7,1,1.2s0.2,0.9,0.2,1.5c-0.1,0.9-0.6,1.6-1.4,2
			s-1.8,0.6-3,0.4c-1.2-0.2-2.2-0.6-2.9-1.3c-0.7-0.7-1-1.5-0.8-2.4l1.2,0.2c-0.1,0.7,0.2,1.3,0.6,1.7c0.5,0.5,1.2,0.8,2,0.9
			c0.8,0.1,1.5,0,2.1-0.2S102.8,18.8,102.9,18.2z"/>
		<path fill="#3E3D4D" d="M112.7,20.8c0.2-0.6,0.1-1.1-0.3-1.6s-1-0.9-1.8-1.4c-0.9-0.5-1.5-0.9-1.9-1.3c-0.4-0.4-0.7-0.8-0.9-1.2
			c-0.1-0.4-0.1-0.9,0-1.4c0.2-0.8,0.8-1.4,1.6-1.7s1.8-0.3,2.8,0c1.2,0.3,2,0.9,2.5,1.7c0.5,0.8,0.7,1.6,0.4,2.5l-1.1-0.3
			c0.2-0.6,0.1-1.2-0.3-1.7c-0.4-0.5-1-0.9-1.7-1.2c-0.8-0.2-1.4-0.2-2,0c-0.6,0.2-0.9,0.6-1.1,1.1c-0.2,0.5-0.1,1,0.2,1.4
			c0.3,0.4,0.9,0.9,1.8,1.4c0.9,0.5,1.6,1,2,1.4s0.7,0.8,0.8,1.3c0.1,0.4,0.1,0.9,0,1.5c-0.3,0.9-0.8,1.5-1.7,1.8
			c-0.9,0.3-1.8,0.3-3,0c-1.2-0.4-2.1-0.9-2.7-1.7c-0.6-0.8-0.7-1.6-0.5-2.5l1.1,0.3c-0.2,0.7,0,1.3,0.4,1.8c0.4,0.5,1,0.9,1.9,1.2
			c0.8,0.2,1.5,0.2,2.1,0C112.2,21.7,112.6,21.3,112.7,20.8z"/>
	</g>
</g>
<g id="Layer_3">
</g>
</svg>
