<?xml version="1.0" standalone="no"?>
<!DOCTYPE svg PUBLIC "-//W3C//DTD SVG 20010904//EN"
 "http://www.w3.org/TR/2001/REC-SVG-20010904/DTD/svg10.dtd">
<svg version="1.0" xmlns="http://www.w3.org/2000/svg"
 width="516.000000pt" height="516.000000pt" viewBox="0 0 516.000000 516.000000"
 preserveAspectRatio="xMidYMid meet">
<metadata>
Created by potrace 1.11, written by Peter Selinger 2001-2013
</metadata>
<g transform="translate(0.000000,516.000000) scale(0.100000,-0.100000)"
fill="#000000" stroke="none">
<path d="M2395 4069 c-179 -13 -354 -60 -524 -140 -288 -135 -566 -413 -701
-702 -23 -48 -43 -87 -45 -87 -3 0 -98 41 -212 90 -114 50 -212 90 -220 90
-16 0 -137 -205 -213 -361 -86 -181 -132 -323 -138 -435 -5 -101 -4 -103 68
-109 19 -2 181 -64 359 -138 l324 -135 31 -83 c150 -399 484 -724 891 -869
263 -93 541 -110 816 -50 502 109 925 489 1087 976 64 192 91 405 73 587 -6
61 -9 112 -7 115 15 14 801 332 812 328 8 -3 26 0 40 6 26 12 26 13 22 103 -6
111 -52 254 -138 434 -72 149 -196 361 -212 361 -6 0 -220 -90 -475 -200 -255
-110 -468 -200 -473 -200 -5 0 -40 27 -77 60 -289 257 -688 389 -1088 359z"/>
</g>
</svg>
